<svg width="26" height="26" viewBox="0 0 26 26" fill="none"
    xmlns="http://www.w3.org/2000/svg">
    <path d="M21.4375 12.1877H5.22853L11.4352 6.27595C11.7602 5.96639 11.7728 5.45207 11.4633 5.12707C11.1541 4.80248 10.6398 4.78948 10.3144 5.09904L3.22612 11.8509C2.91941 12.158 2.75 12.5659 2.75 13.0002C2.75 13.4341 2.91941 13.8424 3.24034 14.1629L10.3148 20.9009C10.472 21.0509 10.6735 21.1252 10.875 21.1252C11.0895 21.1252 11.304 21.0407 11.4637 20.8729C11.7732 20.5479 11.7606 20.034 11.4356 19.7244L5.20294 13.8127H21.4375C21.886 13.8127 22.25 13.4487 22.25 13.0002C22.25 12.5517 21.886 12.1877 21.4375 12.1877Z" fill="currentColor"/>
</svg>
