<svg width="259" height="228" viewBox="0 0 259 228" fill="none" xmlns="http://www.w3.org/2000/svg">
<path d="M198.57 114.35L195.142 117.197L191.001 115.549C190.711 115.433 190.424 115.721 190.539 116.011L192.187 120.151L189.341 123.58C189.141 123.82 189.326 124.182 189.637 124.162L194.084 123.874L196.465 127.641C196.632 127.904 197.033 127.841 197.11 127.539L198.211 123.22L202.529 122.12C202.832 122.043 202.895 121.641 202.631 121.475L198.865 119.093L199.152 114.647C199.172 114.335 198.81 114.151 198.57 114.35Z" fill="#FFDC64"/>
<path d="M187.463 118.888C187.845 118.95 189.251 119.452 190.065 119.75C190.193 119.797 190.162 119.986 190.026 119.99C189.16 120.014 187.667 120.045 187.285 119.983C186.983 119.933 186.777 119.648 186.827 119.346C186.876 119.044 187.161 118.838 187.463 118.888Z" fill="#FFF082"/>
<path d="M193.878 112.473C193.941 112.855 194.443 114.26 194.741 115.074C194.788 115.202 194.977 115.172 194.98 115.035C195.005 114.169 195.035 112.676 194.973 112.294C194.924 111.992 194.639 111.787 194.337 111.836C194.034 111.885 193.829 112.17 193.878 112.473Z" fill="#FFF082"/>
<path d="M202.921 116.46C202.576 116.635 201.389 117.541 200.704 118.073C200.597 118.156 200.683 118.326 200.814 118.289C201.647 118.049 203.078 117.624 203.423 117.449C203.697 117.31 203.805 116.976 203.667 116.703C203.528 116.43 203.194 116.321 202.921 116.46Z" fill="#FFF082"/>
<path d="M191.451 127.93C191.626 127.585 192.532 126.399 193.063 125.713C193.147 125.606 193.317 125.692 193.279 125.823C193.039 126.656 192.615 128.088 192.44 128.433C192.301 128.706 191.967 128.815 191.694 128.676C191.421 128.537 191.312 128.203 191.451 127.93Z" fill="#FFF082"/>
<path d="M201.232 127.002C200.958 126.728 200.111 125.499 199.625 124.781C199.548 124.669 199.683 124.533 199.796 124.61C200.514 125.097 201.743 125.944 202.017 126.217C202.233 126.434 202.233 126.785 202.017 127.002C201.8 127.218 201.449 127.218 201.232 127.002Z" fill="#FFF082"/>
<path d="M192.507 116.148L191.001 115.549C190.711 115.433 190.424 115.721 190.539 116.011L192.187 120.151L189.341 123.58C189.141 123.82 189.326 124.182 189.637 124.162L194.084 123.874L196.465 127.641C196.632 127.904 197.033 127.841 197.11 127.539L197.257 126.964C194.021 122.546 192.874 118.075 192.507 116.148Z" fill="#FFC850"/>
<path d="M124.199 3.88925L121.199 6.38L117.576 4.93821C117.323 4.83725 117.071 5.08865 117.172 5.34231L118.614 8.96519L116.123 11.9652C115.949 12.1753 116.11 12.4921 116.383 12.4744L120.274 12.2227L122.357 15.5186C122.503 15.7494 122.854 15.6938 122.922 15.4292L123.885 11.6508L127.663 10.6878C127.928 10.6203 127.983 10.2692 127.753 10.1233L124.457 8.0398L124.708 4.1487C124.726 3.87625 124.409 3.71484 124.199 3.88925Z" fill="#FFDC64"/>
<path d="M118.894 5.46252L117.576 4.93823C117.322 4.83727 117.071 5.08867 117.172 5.34233L118.614 8.96521L116.123 11.9652C115.949 12.1753 116.11 12.4921 116.383 12.4744L120.274 12.2227L122.357 15.5186C122.503 15.7494 122.854 15.6938 122.922 15.4292L123.05 14.9264C120.219 11.0606 119.215 7.14839 118.894 5.46252Z" fill="#FFC850"/>
<rect x="39.6498" y="31.2229" width="15" height="3" rx="1.5" transform="rotate(-37 39.6498 31.2229)" fill="#FE4B20"/>
<rect x="219.844" y="18.8157" width="15" height="3" rx="1.5" transform="rotate(-37 219.844 18.8157)" fill="#FE4B20"/>
<rect x="243.844" y="89.8157" width="15" height="3" rx="1.5" transform="rotate(-37 243.844 89.8157)" fill="#FE4B20"/>
<rect x="75.8438" y="102.351" width="15" height="3" rx="1.5" transform="rotate(31 75.8438 102.351)" fill="#FE4B20"/>
<rect x="90.2037" y="42.0067" width="10" height="2" rx="1" transform="rotate(67 90.2037 42.0067)" fill="#9186F4"/>
<rect x="5.01477" y="42.7632" width="6" height="6" transform="rotate(42 5.01477 42.7632)" fill="#9186F4"/>
<rect x="28.0298" y="143.155" width="6" height="6" transform="rotate(70 28.0298 143.155)" fill="#9186F4"/>
<rect x="164.793" y="95.1548" width="6" height="6" transform="rotate(70 164.793 95.1548)" fill="#FE4B20"/>
<rect x="201.081" y="217.351" width="15" height="3" rx="1.5" transform="rotate(31 201.081 217.351)" fill="#FE4B20"/>
<rect x="247.966" y="206.068" width="10" height="2" rx="1" transform="rotate(31 247.966 206.068)" fill="#9186F4"/>
<rect x="181.385" y="54.3975" width="10" height="2" rx="1" transform="rotate(138 181.385 54.3975)" fill="#9186F4"/>
</svg>
