<svg width="32" height="30" viewBox="0 0 32 30" fill="none"
    xmlns="http://www.w3.org/2000/svg">
    <path d="M15.9134 30C16.8897 30 17.709 29.3204 17.9368 28.4023C16.5691 27.2009 15.7038 25.4273 15.7038 23.4488C15.7038 21.4399 16.5958 19.6428 18 18.4411V10.115C18 8.94684 17.0657 8 15.9134 8H2.0864C0.93428 8 0 8.94684 0 10.115V27.885C0 29.0532 0.93428 30 2.0864 30" fill="#5B9ED6"/>
    <path d="M15.9136 8H14.3678C15.5202 8 16.4545 8.94684 16.4545 10.115V17.3742C16.4545 17.7042 16.338 18.0228 16.1277 18.2749C15.4918 19.0364 14.9937 19.9197 14.6723 20.8856C14.3416 21.6729 14.1583 22.5389 14.1583 23.4485C14.1583 24.3626 14.3431 25.2328 14.6767 26.0231C14.6789 26.0298 14.6811 26.0365 14.6833 26.0432C14.9898 26.9513 14.3345 27.8974 13.3875 27.8974H2.08643C0.934292 27.8974 0 26.9503 0 25.7821V27.885C0 29.0532 0.934293 30 2.08668 30H15.9136C16.5911 30 17.193 29.6725 17.5741 29.1651C17.5763 29.1621 17.5785 29.1591 17.581 29.1559C17.5961 29.1353 17.6113 29.1142 17.626 29.0929C17.6299 29.0871 17.6336 29.0814 17.6375 29.0757C17.6502 29.0569 17.6629 29.0375 17.6752 29.0179C17.6796 29.0107 17.6842 29.0033 17.6887 28.9961C17.6997 28.978 17.7104 28.9596 17.721 28.941C17.7259 28.9326 17.7308 28.9239 17.7354 28.9154C17.7452 28.8978 17.7547 28.88 17.7638 28.8621C17.7687 28.8527 17.7736 28.843 17.7785 28.8333C17.7871 28.8159 17.7954 28.7986 17.8034 28.781C17.8081 28.7705 17.813 28.7604 17.8174 28.7502C17.8252 28.7326 17.8326 28.715 17.8399 28.6973C17.8443 28.6867 17.8487 28.676 17.8529 28.6653C17.86 28.6472 17.8666 28.6291 17.8732 28.611C17.8771 28.6003 17.881 28.5897 17.8847 28.579C17.8916 28.5594 17.8977 28.5395 17.9038 28.5197C17.9067 28.5103 17.9099 28.5008 17.9129 28.4914C17.9214 28.4619 17.9295 28.4323 17.9371 28.4023C17.8666 28.3403 17.7976 28.2765 17.7298 28.2115C17.7217 28.2038 17.7136 28.1964 17.7055 28.1884C17.6404 28.1254 17.5765 28.0609 17.5141 27.9951C17.5053 27.986 17.4967 27.9768 17.4882 27.9676C17.4253 27.9009 17.3638 27.8329 17.3039 27.7632C17.298 27.7562 17.2919 27.7493 17.286 27.7423C17.2236 27.6694 17.1624 27.5954 17.1032 27.5197C16.2274 26.4017 15.7038 24.9871 15.7038 23.4488C15.7038 21.4399 16.596 19.6428 18 18.4411V10.115C18.0002 8.94684 17.066 8 15.9136 8V8Z" fill="#4C83B3"/>
    <path d="M4 6H14V8H4V6Z" fill="#5A67AD"/>
    <path d="M12 6H14V8H12V6Z" fill="#48538A"/>
    <path d="M2 3.50011V5.29849C2 5.68595 2.35198 6 2.78569 6H15.2143C15.6483 6 16 5.68595 16 5.29849V1.70151C16 1.31405 15.6483 1 15.2143 1H2.78569C2.35173 1 2 1.31427 2 1.70151V3.50011Z" fill="#5B9ED6"/>
    <path d="M12 1V6H15.1089C15.6011 6 16 5.68595 16 5.29849V1.70151C16 1.31405 15.6011 1 15.1089 1H12Z" fill="#4C83B3"/>
    <path d="M15 19.5001C15 22.5375 12.5377 25 9.5 25C6.46258 25 4 22.5375 4 19.5001C4 16.4625 6.46258 14 9.5 14C12.5377 14 15 16.4625 15 19.5001Z" fill="#EF2D57"/>
    <path d="M12.6246 15C13.2334 15.8833 13.5907 16.9536 13.5907 18.1074C13.5907 21.1357 11.1357 23.5905 8.10767 23.5905C6.95358 23.5905 5.88355 23.2334 5 22.6244C5.98894 24.0589 7.64271 25 9.51694 25C12.5453 25 15 22.545 15 19.5169C15 17.6427 14.0592 15.9889 12.6246 15Z" fill="#D9294F"/>
    <path d="M29 23.4999C29 27.0899 26.0899 30 22.4999 30C18.9101 30 16 27.0899 16 23.4999C16 19.9101 18.9101 17 22.4999 17C26.0899 17 29 19.9101 29 23.4999Z" fill="#FCDA55"/>
    <path d="M25.5782 18C26.3594 19.1214 26.8234 20.5203 26.8234 22.0373C26.8234 25.7262 24.0824 28.7165 20.7008 28.7165C19.3102 28.7165 18.0279 28.2103 17 27.3581C18.1184 28.9634 19.8867 30 21.8776 30C25.2589 30 28 27.0097 28 23.3208C28 21.1491 27.0497 19.22 25.5782 18Z" fill="#D9BC4A"/>
    <path d="M17 27.3947C17.255 27.6161 17.5271 27.8187 17.8139 28L27 18.8136C26.8187 18.5269 26.6164 18.2547 26.3947 18C26.3536 18.0227 26.3145 18.0512 26.2794 18.0863L17.0863 27.2794C17.0512 27.3145 17.0227 27.3533 17 27.3947Z" fill="#D9BC4A"/>
    <path d="M26.1245 9.0641C23.8112 9.62054 22 11.5091 22 13.9573V17.0562C22.0243 17.0559 22.0483 17.0552 22.0725 17.0552C25.6462 17.0552 28.543 19.9351 28.543 23.4878C28.543 25.2407 27.8375 26.8296 26.6936 27.9898C26.795 27.9961 26.897 28 26.9999 28C29.7614 28 32 25.7745 32 23.0293V13.9573C32 11.5091 30.2192 9.47582 27.8755 9.0641C27.8755 9.0641 26.7239 8.91987 26.1245 9.0641Z" fill="#F084AD"/>
    <path d="M27.8256 9.06413C27.1902 8.97862 26.5997 8.97862 26.0536 9.06413C26.0357 9.0673 26.0179 9.07144 26 9.07461C28.3452 9.50777 30.1205 11.5277 30.1205 13.9573V23.0294C30.1205 25.1162 28.8108 26.9017 26.9549 27.6385C26.8507 27.7595 26.7423 27.8767 26.6295 27.9898C26.7321 27.9961 26.8353 28 26.9397 28C29.7344 28 32 25.7745 32 23.0294V13.9573C32 11.5091 30.1977 9.47586 27.8256 9.06413Z" fill="#D47499"/>
    <path d="M26 18C27.4972 19.2406 28.4543 21.1331 28.4543 23.2534C28.4543 25.0975 27.7307 26.7689 26.5575 27.9892C26.6615 27.9956 26.7661 28 26.8716 28C29.704 28 32 25.659 32 22.7714V18L26 18Z" fill="#EF2D57"/>
    <path d="M30.2502 22.7714C30.2502 24.9666 29.0308 26.8445 27.3029 27.6197C27.2579 27.6789 27.212 27.7368 27.1651 27.7942C27.157 27.804 27.1489 27.8137 27.1411 27.8234C27.0947 27.8796 27.0478 27.9352 27 27.9892C27.0956 27.9959 27.1917 28 27.2886 28C29.8907 28 32 25.659 32 22.7714V18H30.2502V22.7714Z" fill="#CC264B"/>
    <path d="M11.5004 18.5005H9.49949V16.4996C9.49949 16.2237 9.27577 16 8.99988 16C8.72398 16 8.50051 16.2237 8.50051 16.4996V18.5005H6.49961C6.22372 18.5005 6 18.724 6 18.9999C6 19.2758 6.22372 19.4995 6.49961 19.4995H8.50051V21.5004C8.50051 21.7763 8.72398 22 8.99988 22C9.27577 22 9.49949 21.7763 9.49949 21.5004V19.4995H11.5004C11.7763 19.4995 12 19.2758 12 18.9999C12 18.724 11.7763 18.5005 11.5004 18.5005Z" fill="white"/>
    <path d="M5.53961 6.9987C5.2722 6.9987 5.05536 6.76198 5.05536 6.47005V0.528646C5.05536 0.236719 5.2722 0 5.53961 0C5.80703 0 6.02387 0.236719 6.02387 0.528646V6.47005C6.02387 6.76198 5.80703 6.9987 5.53961 6.9987Z" fill="#674297"/>
    <path d="M9.01526 6.9987C8.74785 6.9987 8.53101 6.76198 8.53101 6.47005V0.528646C8.53101 0.236719 8.74785 0 9.01526 0C9.28268 0 9.49928 0.236719 9.49928 0.528646V6.47005C9.49952 6.76198 9.28268 6.9987 9.01526 6.9987Z" fill="#674297"/>
    <path d="M12.491 6.9987C12.2236 6.9987 12.0067 6.76198 12.0067 6.47005V0.528646C12.0067 0.236719 12.2236 0 12.491 0C12.7584 0 12.975 0.236719 12.975 0.528646V6.47005C12.9752 6.76198 12.7584 6.9987 12.491 6.9987Z" fill="#674297"/>
    <path d="M17.5009 28C17.3727 28 17.2446 27.9509 17.1466 27.8531C16.9511 27.6574 16.9511 27.3402 17.1466 27.1444L26.1445 18.1467C26.3402 17.9512 26.6574 17.951 26.8532 18.1467C27.0489 18.3425 27.0489 18.6597 26.8532 18.8554L17.8553 27.8531C17.7573 27.9509 17.6292 28 17.5009 28Z" fill="#E69326"/>
</svg>
