<svg width="131" height="13" viewBox="0 0 131 13" fill="none"
    xmlns="http://www.w3.org/2000/svg">
    <path d="M3.996 6.58H2.136V10H1.212V1.252H4.14C6.276 1.24 7.212 2.524 7.212 3.88C7.212 4.636 6.924 5.296 6.408 5.788C5.88 6.28 5.028 6.58 3.996 6.58ZM4.068 2.116H2.136V5.728H4.02C4.8 5.728 5.412 5.5 5.76 5.14C6.108 4.792 6.276 4.36 6.276 3.904C6.276 3.052 5.784 2.116 4.068 2.116ZM10.7487 10.108C10.1967 10.108 9.66872 9.964 9.20072 9.7C8.73272 9.424 8.36072 9.052 8.09672 8.584C7.82072 8.116 7.68872 7.6 7.68872 7.036C7.68872 6.16 7.97672 5.416 8.57672 4.828C9.16472 4.228 9.89672 3.928 10.7727 3.928C12.4647 3.892 13.8807 5.32 13.8567 7C13.8807 8.728 12.4647 10.144 10.7487 10.108ZM10.7727 9.328C11.3967 9.328 11.9247 9.1 12.3447 8.656C12.7527 8.212 12.9567 7.672 12.9567 7.036C12.9567 6.4 12.7527 5.848 12.3327 5.38C11.9127 4.924 11.3967 4.696 10.7487 4.696C10.1247 4.696 9.59672 4.924 9.18872 5.368C8.78072 5.812 8.57672 6.352 8.57672 7C8.55272 8.236 9.50072 9.352 10.7727 9.328ZM18.9568 5.152L17.3728 10H16.4128L14.4208 4.036H15.3328L16.9048 8.98L18.5248 4.036H19.4128L21.0328 8.992H21.0448L22.6288 4.036H23.5288L21.5128 10H20.5528L18.9688 5.152H18.9568ZM29.7715 7.288H24.9475C24.9835 7.876 25.1995 8.356 25.6075 8.74C26.0155 9.136 26.5075 9.328 27.0835 9.328C27.9835 9.328 28.6555 8.884 28.9315 8.056L29.6995 8.296C29.5315 8.86 29.2075 9.304 28.7275 9.628C28.2475 9.94 27.7075 10.108 27.0955 10.108C26.5315 10.108 26.0155 9.964 25.5475 9.688C25.0795 9.412 24.7195 9.04 24.4675 8.56C24.2035 8.092 24.0715 7.576 24.0715 7.012C24.0715 6.472 24.1915 5.968 24.4435 5.5C24.6835 5.02 25.0315 4.648 25.4875 4.36C25.9315 4.072 26.4355 3.928 26.9755 3.928C27.5635 3.928 28.0795 4.06 28.5115 4.336C28.9435 4.6 29.2675 4.972 29.4715 5.428C29.6875 5.884 29.7835 6.4 29.7835 7C29.7835 7.06 29.7835 7.156 29.7715 7.288ZM24.9595 6.544H28.9075C28.8475 5.992 28.6435 5.548 28.3075 5.2C27.9715 4.864 27.5275 4.696 26.9755 4.696C26.4595 4.696 26.0275 4.876 25.6435 5.236C25.2595 5.608 25.0315 6.04 24.9595 6.544ZM31.2887 4.036H32.1407V5.212C32.4287 4.624 32.9087 4.228 33.3647 4.06C33.5927 3.976 33.8327 3.94 34.0727 3.94C34.2047 3.94 34.3007 3.94 34.3607 3.964V4.888C34.2647 4.864 34.1447 4.864 34.0247 4.864C32.6087 4.864 32.1647 6.028 32.1647 7.084V10H31.2887V4.036ZM40.3418 7.288H35.5178C35.5538 7.876 35.7698 8.356 36.1778 8.74C36.5858 9.136 37.0778 9.328 37.6538 9.328C38.5538 9.328 39.2258 8.884 39.5018 8.056L40.2698 8.296C40.1018 8.86 39.7778 9.304 39.2978 9.628C38.8178 9.94 38.2778 10.108 37.6658 10.108C37.1018 10.108 36.5858 9.964 36.1178 9.688C35.6498 9.412 35.2898 9.04 35.0378 8.56C34.7738 8.092 34.6418 7.576 34.6418 7.012C34.6418 6.472 34.7618 5.968 35.0138 5.5C35.2538 5.02 35.6018 4.648 36.0578 4.36C36.5018 4.072 37.0058 3.928 37.5458 3.928C38.1338 3.928 38.6498 4.06 39.0818 4.336C39.5138 4.6 39.8378 4.972 40.0418 5.428C40.2578 5.884 40.3538 6.4 40.3538 7C40.3538 7.06 40.3538 7.156 40.3418 7.288ZM35.5298 6.544H39.4778C39.4178 5.992 39.2138 5.548 38.8778 5.2C38.5418 4.864 38.0978 4.696 37.5458 4.696C37.0298 4.696 36.5978 4.876 36.2138 5.236C35.8298 5.608 35.6018 6.04 35.5298 6.544ZM41.427 7.012C41.427 6.232 41.715 5.464 42.195 4.888C42.675 4.3 43.407 3.928 44.223 3.928C44.775 3.928 45.267 4.084 45.639 4.348C46.011 4.612 46.275 4.9 46.539 5.284V0.904H47.403V10H46.551V8.728C45.999 9.64 45.219 10.084 44.223 10.084C43.395 10.084 42.663 9.724 42.183 9.16C41.715 8.596 41.427 7.828 41.427 7.012ZM44.403 9.328C45.627 9.34 46.575 8.2 46.551 7C46.551 6.22 46.167 5.476 45.507 5.032C45.171 4.816 44.799 4.708 44.403 4.708C43.767 4.708 43.263 4.924 42.891 5.368C42.507 5.812 42.315 6.364 42.315 7.036C42.315 7.864 42.651 8.572 43.287 9.004C43.611 9.22 43.983 9.328 44.403 9.328ZM55.9799 10H52.7159V1.252H55.8599C57.4439 1.228 58.6799 2.044 58.6799 3.448C58.6799 3.652 58.6679 3.832 58.5599 4.168C58.5119 4.336 58.4399 4.48 58.3439 4.624C58.1639 4.912 57.8039 5.248 57.3479 5.452C57.9599 5.608 58.4519 5.98 58.7039 6.4C58.9559 6.82 59.0639 7.24 59.0639 7.6C59.0639 8.416 58.7159 9.052 58.1399 9.436C57.5639 9.808 56.8199 10 55.9799 10ZM55.7879 2.092H53.6279V5.14H55.7159C56.3999 5.14 56.9039 4.996 57.2399 4.696C57.5759 4.396 57.7439 4.024 57.7439 3.556C57.7439 2.488 56.7839 2.092 55.7879 2.092ZM55.8239 5.956H53.6279V9.16H56.0039C56.9519 9.16 58.1279 8.776 58.1279 7.54C58.1279 6.784 57.6599 6.364 57.0719 6.16C56.6639 6.004 56.2679 5.956 55.8239 5.956ZM61.8715 12.94H60.9235L62.4715 9.592L59.7595 4.036H60.7555L62.9395 8.644L65.0155 4.036H65.9515L61.8715 12.94Z" fill="black"/>
    <g clip-path="url(#clip0_1_778)">
        <g clip-path="url(#clip1_1_778)">
            <path d="M118.767 5.54022C118.767 7.04187 117.64 7.97484 115.84 7.97484H114.484V9.83253H112.924V3.09572H115.84C117.64 3.09572 118.767 4.02869 118.767 5.54022ZM117.188 5.54022C117.188 4.79847 116.706 4.36577 115.754 4.36577H114.484V6.70479H115.753C116.706 6.70479 117.188 6.27127 117.188 5.54022Z" fill="#A682FF"/>
            <path d="M124.744 4.65175V9.83005H123.309V9.23335C122.934 9.68582 122.385 9.9067 121.693 9.9067C120.229 9.9067 119.103 8.86741 119.103 7.24049C119.103 5.61357 120.229 4.5751 121.693 4.5751C122.327 4.5751 122.866 4.77703 123.242 5.20065V4.65175H124.744ZM123.271 7.24049C123.271 6.34543 122.694 5.80642 121.952 5.80642C121.21 5.80642 120.624 6.34543 120.624 7.24049C120.624 8.13554 121.201 8.67455 121.952 8.67455C122.704 8.67455 123.271 8.13966 123.271 7.24379V7.24049Z" fill="#A682FF"/>
            <path d="M131 4.62868L128.661 10.1251C128.161 11.3762 127.449 11.7512 126.518 11.7512C125.989 11.7512 125.411 11.5781 125.074 11.2798L125.623 10.2083C125.858 10.4141 126.158 10.5308 126.47 10.538C126.882 10.538 127.115 10.3551 127.317 9.89269L127.337 9.84489L125.094 4.62785H126.643L128.097 8.14132L129.559 4.62785L131 4.62868Z" fill="#A682FF"/>
            <path d="M90.9451 8.36549C91.2576 8.18709 91.5144 7.92545 91.6869 7.60972C91.865 7.26958 91.9581 6.89134 91.9581 6.50739C91.9581 6.12343 91.865 5.74519 91.6869 5.40505C91.5141 5.08973 91.2574 4.82842 90.9451 4.65011C90.6186 4.47237 90.2528 4.37924 89.8811 4.37924C89.5094 4.37924 89.1436 4.47237 88.8171 4.65011C88.5032 4.82768 88.245 5.08908 88.0712 5.40505C87.8931 5.74519 87.8 6.12343 87.8 6.50739C87.8 6.89134 87.8931 7.26958 88.0712 7.60972C88.2447 7.9261 88.503 8.18783 88.8171 8.36549C89.1436 8.54323 89.5094 8.63635 89.8811 8.63635C90.2528 8.63635 90.6186 8.54323 90.9451 8.36549ZM88.0111 9.50038C87.4721 9.21773 87.0216 8.79196 86.7089 8.26989C86.4005 7.73367 86.2383 7.12594 86.2383 6.50739C86.2383 5.88883 86.4005 5.28111 86.7089 4.74489C87.0218 4.22322 87.4723 3.79778 88.0111 3.51521C88.5886 3.22156 89.2274 3.0685 89.8753 3.0685C90.5233 3.0685 91.1621 3.22156 91.7396 3.51521C92.2831 3.80145 92.7368 4.23253 93.0505 4.76071C93.3641 5.2889 93.5254 5.89358 93.5166 6.5078C93.5251 7.12196 93.3637 7.72653 93.0501 8.25466C92.7365 8.78279 92.283 9.21393 91.7396 9.50038C91.1621 9.79404 90.5233 9.9471 89.8753 9.9471C89.2274 9.9471 88.5886 9.79404 88.0111 9.50038Z" fill="#173E87"/>
            <path d="M102.401 5.21137C102.778 5.5872 102.966 6.15231 102.966 6.9067V9.83253H101.482V7.135C101.482 6.72951 101.398 6.42731 101.231 6.22841C101.063 6.02951 100.824 5.92978 100.513 5.92923C100.165 5.92923 99.8904 6.04159 99.6887 6.26632C99.4871 6.49104 99.3857 6.82511 99.3846 7.26852V9.83335H97.9011V7.135C97.9011 6.3306 97.5783 5.92841 96.9327 5.92841C96.7801 5.92146 96.6278 5.94805 96.4865 6.00629C96.3453 6.06452 96.2185 6.153 96.1151 6.26549C95.9124 6.49077 95.811 6.82483 95.811 7.26769V9.83253H94.3275V4.72264H95.7434V5.3111C95.9348 5.09425 96.1741 4.92495 96.4423 4.81659C96.7302 4.69998 97.0384 4.64198 97.3489 4.64599C97.6871 4.64087 98.0219 4.71392 98.3272 4.85945C98.6142 4.99846 98.8574 5.21373 99.0302 5.4817C99.2409 5.21452 99.5133 5.00241 99.8239 4.86357C100.154 4.71641 100.512 4.64219 100.873 4.64599C101.514 4.64599 102.022 4.83445 102.399 5.21137" fill="#173E87"/>
            <path d="M108.703 5.21549C109.093 5.59571 109.288 6.15945 109.287 6.9067V9.83335H107.804V7.135C107.804 6.7295 107.715 6.42731 107.537 6.2284C107.36 6.0295 107.104 5.9295 106.769 5.9284C106.395 5.9284 106.098 6.04379 105.877 6.27456C105.656 6.50533 105.546 6.84901 105.547 7.3056V9.83335H104.063V4.72346H105.479V5.32181C105.682 5.10204 105.932 4.93149 106.21 4.82318C106.516 4.7027 106.842 4.6428 107.171 4.64681C107.803 4.64681 108.315 4.83719 108.704 5.21714" fill="#173E87"/>
            <path d="M111.868 5.9449C111.86 5.93583 110.874 5.75039 110.874 5.45039C110.874 5.15039 111.867 4.95588 111.867 4.95588C111.867 4.95588 111.867 4.04929 111.867 3.58858H110.383V9.83006H111.867C111.867 9.66523 111.871 7.47539 111.867 5.94242" fill="#173E87"/>
        </g>
        <g clip-path="url(#clip2_1_778)">
            <path d="M77.4697 13.2514C76.564 13.2502 75.6622 13.1333 74.7861 12.9037C74.7021 12.8879 74.6226 12.8536 74.5535 12.8033C74.4844 12.753 74.4274 12.6879 74.3866 12.6127C74.2485 12.3506 74.1079 12.0892 73.9706 11.8262C73.9467 11.781 73.9105 11.7292 73.9484 11.6807C73.9862 11.6322 74.0544 11.6437 74.1128 11.6618C74.8728 11.9021 75.6777 11.9651 76.4658 11.8459C77.5905 11.6941 78.6434 11.2072 79.4873 10.4487C80.2464 9.77429 80.8065 8.90514 81.107 7.93535C81.2262 7.55399 81.3306 7.16359 81.3208 6.7584C81.3142 6.52087 81.403 6.28745 81.3388 6.0491C81.3273 6.00636 81.3347 5.94883 81.389 5.94061C81.4433 5.93239 81.4712 5.98499 81.4984 6.03266C81.7008 6.4457 81.8476 6.88375 81.9349 7.33537C82.0398 7.8433 82.0774 8.3628 82.0467 8.88053C81.9765 9.89084 81.6419 10.865 81.0766 11.7054C80.7976 12.1268 80.4595 12.506 80.0727 12.8314C79.9454 12.9339 79.794 13.0024 79.6328 13.0303C78.9194 13.1728 78.194 13.2469 77.4664 13.2514" fill="#173E87"/>
            <path d="M75.7522 11.458C74.6192 11.4276 73.6195 11.1687 72.7011 10.6131C72.4544 10.4635 72.3492 10.212 72.2275 9.98187C71.7608 9.12005 71.4208 8.19551 71.2179 7.23674C71.0945 6.66452 71.0216 6.08258 71 5.49761C70.9934 5.41687 71.0158 5.33641 71.0633 5.27077C71.2787 4.98311 71.5451 4.74558 71.7975 4.49408C71.8888 4.40367 71.9406 4.44394 71.962 4.55079C71.9776 4.6158 71.9872 4.6821 71.9907 4.74887C72.008 5.685 72.2941 6.5406 72.7693 7.33783C73.4748 8.52054 74.4959 9.31038 75.7867 9.77146C76.7593 10.1158 77.75 10.1331 78.7465 9.972C79.0107 9.93223 79.2687 9.85905 79.5144 9.7542C79.5588 9.73448 79.6229 9.69996 79.6567 9.7542C79.6904 9.80845 79.632 9.84379 79.5942 9.87995C78.9274 10.5088 78.1184 10.967 77.2362 11.2155C76.7485 11.3425 76.25 11.4234 75.7472 11.4572" fill="#173E87"/>
            <path d="M79.1559 3.02947C80.9581 3.05002 82.4446 3.76096 83.6178 5.11791C83.9605 5.52865 84.2413 5.98716 84.4515 6.47896C84.5023 6.59497 84.5232 6.72184 84.5124 6.84799C84.4038 8.60931 83.7872 10.1931 82.8294 11.6585C82.8097 11.6984 82.7818 11.7337 82.7475 11.762C82.7132 11.7903 82.6733 11.8111 82.6304 11.8229C82.3016 11.8821 81.9727 11.9421 81.6438 11.998C81.5879 12.007 81.5139 12.0218 81.4753 11.9709C81.4366 11.9199 81.4983 11.8624 81.5287 11.8163C81.9289 11.2256 82.2116 10.5635 82.3616 9.86599C82.7225 8.08083 82.3517 6.46088 81.2007 5.04394C80.5331 4.21956 79.6384 3.60892 78.6273 3.28755C78.5557 3.26454 78.485 3.24317 78.416 3.21687C78.3708 3.19961 78.2976 3.19385 78.3116 3.12564C78.3255 3.05742 78.3938 3.07632 78.4439 3.07221C78.6807 3.05495 78.9159 3.00728 79.1559 3.02783" fill="#173E87"/>
            <path d="M79.2809 2.64401C77.5379 2.73442 75.9404 3.48481 74.8034 5.10969C74.7713 5.15654 74.7442 5.23379 74.6735 5.2001C74.6027 5.1664 74.6274 5.09489 74.6406 5.03572C74.8601 4.10862 75.2309 3.25796 75.8401 2.50922C76.5423 1.64787 77.4286 1.0709 78.4554 0.692011C78.8879 0.532564 79.3467 0.467633 79.8005 0.407634C80.1294 0.364896 80.3982 0.572013 80.6712 0.707625C82.0221 1.37177 83.2112 2.32363 84.1547 3.49631C84.2163 3.56494 84.2597 3.64795 84.2808 3.73771C84.302 3.82748 84.3001 3.92111 84.2756 4.01C84.2205 4.25656 84.2073 4.50888 84.1736 4.75874C84.1638 4.83189 84.1597 4.92312 84.0758 4.94285C83.9919 4.96257 83.978 4.8697 83.9385 4.81956C83.3803 4.12515 82.6703 3.56794 81.863 3.19079C81.0557 2.81364 80.1727 2.62658 79.2817 2.64401" fill="#A682FF"/>
            <path d="M72.554 2.90619C72.6209 2.72505 72.7293 2.56208 72.8705 2.43031C73.6986 1.52443 74.6888 0.781282 75.79 0.239142C76.1254 0.0648579 76.4711 -0.0888473 76.8251 -0.221119C76.8927 -0.251074 76.966 -0.266068 77.04 -0.265075C77.1139 -0.264082 77.1867 -0.247124 77.2535 -0.215365C77.5051 -0.089615 77.7632 0.0246276 78.0148 0.151199C78.0757 0.182431 78.171 0.208731 78.1678 0.294208C78.1645 0.379685 78.0674 0.36818 78.0091 0.391193C76.997 0.783237 76.137 1.38486 75.4735 2.25032C74.9335 2.95214 74.5647 3.77024 74.3965 4.63956C74.2709 5.25065 74.2528 5.87893 74.343 6.49622C74.4706 7.43426 74.8388 8.32333 75.4118 9.07697C75.4349 9.10656 75.4595 9.1345 75.4809 9.16409C75.5023 9.19368 75.5426 9.24627 75.5146 9.2849C75.4702 9.3449 75.4184 9.2923 75.3781 9.26847C75.061 9.09074 74.7585 8.88791 74.4737 8.66191C73.7065 8.03144 73.1152 7.21354 72.757 6.28746C72.5786 5.82638 72.4323 5.34721 72.4282 4.84011C72.4282 4.63956 72.415 3.34508 72.549 2.90619" fill="#173E87"/>
        </g>
    </g>
    <defs>
        <clipPath id="clip0_1_778">
            <rect width="60" height="13" fill="white" transform="translate(71)"/>
        </clipPath>
        <clipPath id="clip1_1_778">
            <rect width="44.7618" height="8.35093" fill="white" transform="translate(86.2383 3.23334)"/>
        </clipPath>
        <clipPath id="clip2_1_778">
            <rect width="13.5163" height="13" fill="white" transform="translate(70.9989 -0.017868)"/>
        </clipPath>
    </defs>
</svg>
