<svg width="20" height="18" viewBox="0 0 20 18" fill="none" xmlns="http://www.w3.org/2000/svg">
<path d="M14.7199 4.84269L2.60968 6.45826C2.09949 6.52631 1.67706 6.86984 1.50721 7.35469C1.3374 7.83959 1.45441 8.36809 1.81263 8.73391L4.64166 11.6231L8.90475 9.16184C9.10092 9.04859 9.3512 9.11474 9.46372 9.30963C9.57623 9.5045 9.50841 9.75433 9.31222 9.8676L5.04913 12.3289L6.13675 16.2235C6.27446 16.7167 6.67363 17.0823 7.17848 17.1776C7.68432 17.2731 8.19256 17.0781 8.50607 16.671L15.9603 6.99109C16.2997 6.55037 16.3387 5.97903 16.0622 5.50001C15.7856 5.021 15.2713 4.76909 14.7199 4.84269Z" fill="white"/>
</svg>
